<svg xmlns="http://www.w3.org/2000/svg" xmlns:xlink="http://www.w3.org/1999/xlink" width="1000" zoomAndPan="magnify" viewBox="0 0 750 749.999995" height="1000" preserveAspectRatio="xMidYMid meet" version="1.0"><defs><clipPath id="fffb405084"><path d="M 588.648438 427.660156 L 693.226562 427.660156 L 693.226562 566.875 L 588.648438 566.875 Z M 588.648438 427.660156 " clip-rule="nonzero"/></clipPath><clipPath id="4d659e02b9"><path d="M 281.222656 254.414062 L 435 254.414062 L 435 566.875 L 281.222656 566.875 Z M 281.222656 254.414062 " clip-rule="nonzero"/></clipPath><clipPath id="0148f3bfcd"><path d="M 56.78125 275.429688 L 301.96875 275.429688 L 301.96875 566.875 L 56.78125 566.875 Z M 56.78125 275.429688 " clip-rule="nonzero"/></clipPath></defs><path fill="#4d4d4d" d="M 371.804688 241.820312 C 388.042969 241.820312 401.207031 228.65625 401.207031 212.414062 C 401.207031 196.175781 388.042969 183.011719 371.804688 183.011719 C 355.566406 183.011719 342.398438 196.175781 342.398438 212.414062 C 342.398438 228.65625 355.566406 241.820312 371.804688 241.820312 " fill-opacity="1" fill-rule="nonzero"/><path fill="#4d4d4d" d="M 130.824219 307.4375 L 227.75 307.4375 C 236.417969 307.4375 243.449219 300.410156 243.449219 291.742188 L 243.449219 259.113281 C 243.449219 250.445312 236.417969 243.417969 227.75 243.417969 L 130.824219 243.417969 C 122.15625 243.417969 115.125 250.445312 115.125 259.113281 L 115.125 291.742188 C 115.125 300.410156 122.15625 307.4375 130.824219 307.4375 " fill-opacity="1" fill-rule="nonzero"/><path fill="#4d4d4d" d="M 530.304688 288.207031 L 508.304688 390.707031 C 507.5625 394.167969 509.769531 397.578125 513.230469 398.324219 C 514.976562 398.699219 516.707031 398.324219 518.089844 397.417969 C 519.457031 396.527344 520.480469 395.117188 520.851562 393.394531 L 542.851562 290.898438 C 543.589844 287.4375 541.386719 284.027344 537.921875 283.28125 C 534.460938 282.539062 531.046875 284.746094 530.304688 288.207031 " fill-opacity="1" fill-rule="nonzero"/><path fill="#4d4d4d" d="M 503.324219 295.890625 C 499.859375 295.148438 496.445312 297.351562 495.703125 300.816406 L 481.222656 368.28125 C 480.480469 371.746094 482.6875 375.15625 486.148438 375.898438 C 487.894531 376.273438 489.625 375.902344 491.007812 374.996094 C 492.375 374.101562 493.402344 372.695312 493.769531 370.972656 L 508.25 303.507812 C 508.992188 300.046875 506.785156 296.632812 503.324219 295.890625 " fill-opacity="1" fill-rule="nonzero"/><path fill="#4d4d4d" d="M 606.242188 296.984375 C 618.570312 315.820312 622.816406 338.363281 618.203125 360.464844 C 613.585938 382.5625 600.675781 401.523438 581.835938 413.851562 C 568.085938 422.851562 552.148438 427.609375 535.746094 427.609375 C 507.066406 427.605469 480.609375 413.339844 464.972656 389.445312 C 439.480469 350.496094 450.429688 298.070312 489.378906 272.578125 C 503.128906 263.578125 519.066406 258.820312 535.464844 258.820312 C 564.144531 258.820312 590.605469 273.089844 606.242188 296.984375 Z M 482.347656 261.84375 C 437.480469 291.207031 424.867188 351.601562 454.234375 396.46875 C 472.253906 424 502.726562 440.4375 535.75 440.4375 C 554.652344 440.4375 573.019531 434.957031 588.867188 424.585938 C 633.730469 395.222656 646.34375 334.828125 616.980469 289.957031 C 598.960938 262.425781 568.492188 245.992188 535.464844 245.992188 C 516.5625 245.992188 498.195312 251.472656 482.347656 261.84375 " fill-opacity="1" fill-rule="nonzero"/><g clip-path="url(#fffb405084)"><path fill="#4d4d4d" d="M 595.886719 435.320312 C 593.582031 436.832031 591.230469 438.246094 588.839844 439.570312 L 652.007812 558.046875 C 656.421875 566.332031 666.738281 569.421875 674.988281 564.945312 C 676.824219 563.949219 678.828125 562.757812 680.996094 561.335938 C 683.164062 559.917969 685.058594 558.5625 686.707031 557.277344 C 694.113281 551.511719 695.40625 540.816406 689.578125 533.457031 L 606.027344 427.820312 C 602.824219 430.480469 599.453125 432.992188 595.886719 435.320312 " fill-opacity="1" fill-rule="nonzero"/></g><g clip-path="url(#4d659e02b9)"><path fill="#4d4d4d" d="M 328.464844 265.390625 L 283.191406 363.496094 C 278.898438 372.804688 282.960938 383.835938 292.269531 388.128906 L 292.273438 388.128906 C 301.582031 392.425781 312.609375 388.363281 316.90625 379.054688 L 326.867188 357.46875 C 327.242188 356.660156 328.457031 356.925781 328.457031 357.820312 L 328.457031 548.363281 C 328.457031 558.652344 336.800781 567 347.09375 567 C 357.382812 567 365.726562 558.652344 365.726562 548.363281 L 365.726562 422.472656 C 365.726562 419.117188 368.445312 416.398438 371.804688 416.398438 C 375.15625 416.398438 377.878906 419.117188 377.878906 422.472656 L 377.878906 548.363281 C 377.878906 558.652344 386.21875 567 396.511719 567 C 406.804688 567 415.148438 558.652344 415.148438 548.363281 L 415.148438 357.820312 C 415.148438 356.925781 416.363281 356.65625 416.738281 357.46875 L 426.699219 379.054688 C 428.480469 382.914062 431.421875 385.867188 434.914062 387.703125 C 422.925781 360.605469 422.714844 330.398438 432.871094 303.808594 L 415.140625 265.390625 C 411.8125 258.175781 404.4375 254.113281 396.953125 254.648438 L 346.652344 254.648438 C 339.167969 254.113281 331.792969 258.175781 328.464844 265.390625 " fill-opacity="1" fill-rule="nonzero"/></g><g clip-path="url(#0148f3bfcd)"><path fill="#4d4d4d" d="M 88.960938 520.171875 L 269.613281 520.171875 C 273.15625 520.171875 276.027344 523.046875 276.027344 526.589844 C 276.027344 530.132812 273.15625 533.003906 269.613281 533.003906 L 88.960938 533.003906 C 85.417969 533.003906 82.546875 530.132812 82.546875 526.589844 C 82.546875 523.046875 85.417969 520.171875 88.960938 520.171875 Z M 88.960938 482.539062 L 269.613281 482.539062 C 273.15625 482.539062 276.027344 485.410156 276.027344 488.953125 C 276.027344 492.496094 273.15625 495.371094 269.613281 495.371094 L 88.960938 495.371094 C 85.417969 495.371094 82.546875 492.496094 82.546875 488.953125 C 82.546875 485.410156 85.417969 482.539062 88.960938 482.539062 Z M 88.960938 444.902344 L 269.613281 444.902344 C 273.15625 444.902344 276.027344 447.773438 276.027344 451.316406 C 276.027344 454.863281 273.15625 457.734375 269.613281 457.734375 L 88.960938 457.734375 C 85.417969 457.734375 82.546875 454.863281 82.546875 451.316406 C 82.546875 447.773438 85.417969 444.902344 88.960938 444.902344 Z M 140.179688 370.164062 C 140.179688 368.054688 141.886719 366.347656 143.996094 366.347656 L 158.96875 366.347656 C 161.078125 366.347656 162.785156 364.636719 162.785156 362.527344 L 162.785156 347.554688 C 162.785156 345.449219 164.496094 343.738281 166.605469 343.738281 L 191.96875 343.738281 C 194.078125 343.738281 195.789062 345.449219 195.789062 347.554688 L 195.789062 362.527344 C 195.789062 364.636719 197.496094 366.347656 199.605469 366.347656 L 214.578125 366.347656 C 216.6875 366.347656 218.394531 368.054688 218.394531 370.164062 L 218.394531 395.53125 C 218.394531 397.636719 216.6875 399.347656 214.578125 399.347656 L 199.605469 399.347656 C 197.496094 399.347656 195.789062 401.054688 195.789062 403.164062 L 195.789062 418.136719 C 195.789062 420.246094 194.078125 421.953125 191.96875 421.953125 L 166.605469 421.953125 C 164.496094 421.953125 162.785156 420.246094 162.785156 418.136719 L 162.785156 403.164062 C 162.785156 401.054688 161.078125 399.347656 158.96875 399.347656 L 143.996094 399.347656 C 141.886719 399.347656 140.179688 397.636719 140.179688 395.53125 Z M 93.765625 567 L 264.808594 567 C 285.234375 567 301.792969 550.4375 301.792969 530.011719 L 301.792969 402.621094 C 301.210938 402.652344 300.625 402.675781 300.039062 402.675781 C 295.476562 402.675781 291.054688 401.699219 286.894531 399.78125 C 279.28125 396.265625 273.488281 390 270.589844 382.128906 C 267.691406 374.261719 268.03125 365.734375 271.542969 358.121094 L 299.023438 298.574219 C 293.488281 285.117188 280.257812 275.640625 264.808594 275.640625 L 256.277344 275.640625 L 256.277344 291.742188 C 256.277344 307.472656 243.480469 320.269531 227.75 320.269531 L 130.824219 320.269531 C 115.09375 320.269531 102.296875 307.472656 102.296875 291.742188 L 102.296875 275.519531 L 93.765625 275.640625 C 73.339844 275.640625 56.78125 292.199219 56.78125 312.625 L 56.78125 530.011719 C 56.78125 550.4375 73.339844 567 93.765625 567 " fill-opacity="1" fill-rule="nonzero"/></g></svg>