<svg xmlns="http://www.w3.org/2000/svg" xmlns:xlink="http://www.w3.org/1999/xlink" width="1000" zoomAndPan="magnify" viewBox="0 0 750 749.999995" height="1000" preserveAspectRatio="xMidYMid meet" version="1.0"><defs><clipPath id="d75fb1a557"><path d="M 319 50.6875 L 543 50.6875 L 543 208 L 319 208 Z M 319 50.6875 " clip-rule="nonzero"/></clipPath><clipPath id="2204f59797"><path d="M 464 609 L 531 609 L 531 699.4375 L 464 699.4375 Z M 464 609 " clip-rule="nonzero"/></clipPath><clipPath id="f9035d4664"><path d="M 50.6875 520 L 443 520 L 443 699.4375 L 50.6875 699.4375 Z M 50.6875 520 " clip-rule="nonzero"/></clipPath><clipPath id="b5995a07ae"><path d="M 202 676 L 391 676 L 391 699.4375 L 202 699.4375 Z M 202 676 " clip-rule="nonzero"/></clipPath><clipPath id="1f607e583b"><path d="M 543 609 L 699.4375 609 L 699.4375 699.4375 L 543 699.4375 Z M 543 609 " clip-rule="nonzero"/></clipPath></defs><g clip-path="url(#d75fb1a557)"><path fill="#4d4d4d" d="M 341.449219 95.417969 L 363.816406 95.417969 L 363.816406 117.785156 L 341.449219 117.785156 Z M 386.179688 95.417969 L 475.644531 95.417969 L 475.644531 117.785156 L 386.179688 117.785156 Z M 498.011719 95.417969 L 520.378906 95.417969 L 520.378906 117.785156 L 498.011719 117.785156 Z M 341.449219 162.519531 L 397.363281 162.519531 L 397.363281 207.25 L 449.21875 162.519531 L 520.378906 162.519531 C 532.742188 162.519531 542.746094 152.515625 542.746094 140.152344 L 542.746094 73.054688 C 542.746094 60.691406 532.742188 50.6875 520.378906 50.6875 L 341.449219 50.6875 C 329.085938 50.6875 319.082031 60.691406 319.082031 73.054688 L 319.082031 140.152344 C 319.082031 152.515625 329.085938 162.519531 341.449219 162.519531 " fill-opacity="1" fill-rule="nonzero"/></g><g clip-path="url(#2204f59797)"><path fill="#4d4d4d" d="M 464.460938 609.84375 L 464.460938 699.308594 L 530.382812 699.308594 L 521.425781 609.84375 L 464.460938 609.84375 " fill-opacity="1" fill-rule="nonzero"/></g><path fill="#4d4d4d" d="M 464.460938 565.109375 L 464.460938 587.476562 L 576.292969 587.476562 C 607.136719 587.476562 632.210938 562.402344 632.210938 531.5625 L 632.210938 408.546875 L 609.84375 408.546875 L 609.84375 509.195312 C 609.84375 540.035156 584.769531 565.109375 553.929688 565.109375 L 464.460938 565.109375 " fill-opacity="1" fill-rule="nonzero"/><g clip-path="url(#f9035d4664)"><path fill="#4d4d4d" d="M 151.335938 542.746094 L 184.882812 542.746094 L 184.882812 565.109375 L 151.335938 565.109375 L 151.335938 676.941406 L 50.6875 676.941406 L 50.6875 699.308594 L 177.984375 699.308594 L 200.347656 654.574219 L 393.082031 654.574219 L 415.449219 699.308594 L 442.097656 699.308594 L 442.097656 565.109375 L 207.25 565.109375 L 207.25 542.746094 L 442.097656 542.746094 L 442.097656 520.378906 L 151.335938 520.378906 L 151.335938 542.746094 " fill-opacity="1" fill-rule="nonzero"/></g><path fill="#4d4d4d" d="M 565.109375 365.167969 C 565.109375 358.265625 559.476562 352.632812 552.574219 352.632812 C 549.296875 352.632812 546.019531 353.941406 543.707031 356.300781 L 469.09375 430.914062 L 363.816406 430.914062 C 357.65625 430.914062 352.632812 435.9375 352.632812 442.097656 C 352.632812 448.257812 357.65625 453.28125 363.816406 453.28125 L 482.199219 453.28125 L 561.441406 374.035156 C 563.800781 371.722656 565.109375 368.445312 565.109375 365.167969 " fill-opacity="1" fill-rule="nonzero"/><path fill="#4d4d4d" d="M 498.011719 263.167969 L 498.011719 285.53125 C 498.011719 310.214844 518.0625 330.265625 542.746094 330.265625 C 567.425781 330.265625 587.476562 310.214844 587.476562 285.53125 L 587.476562 263.167969 C 587.476562 238.484375 567.425781 218.433594 542.746094 218.433594 C 518.0625 218.433594 498.011719 238.484375 498.011719 263.167969 " fill-opacity="1" fill-rule="nonzero"/><path fill="#4d4d4d" d="M 464.460938 542.746094 L 553.929688 542.746094 C 572.449219 542.746094 587.476562 527.71875 587.476562 509.195312 L 587.476562 370.71875 C 587.476562 369.929688 587.257812 369.1875 587.128906 368.402344 C 586.386719 376.441406 582.976562 384.128906 577.253906 389.851562 L 498.011719 469.09375 L 498.011719 520.378906 L 464.460938 520.378906 L 464.460938 542.746094 " fill-opacity="1" fill-rule="nonzero"/><g clip-path="url(#b5995a07ae)"><path fill="#4d4d4d" d="M 214.152344 676.941406 L 202.96875 699.308594 L 390.460938 699.308594 L 379.277344 676.941406 L 214.152344 676.941406 " fill-opacity="1" fill-rule="nonzero"/></g><path fill="#4d4d4d" d="M 475.644531 475.644531 L 128.96875 475.644531 L 128.96875 498.011719 L 475.644531 498.011719 L 475.644531 475.644531 " fill-opacity="1" fill-rule="nonzero"/><path fill="#4d4d4d" d="M 330.265625 442.097656 C 330.265625 423.574219 345.292969 408.546875 363.816406 408.546875 L 374.515625 408.546875 C 373.292969 399.855469 367.351562 392.429688 358.792969 389.980469 L 312.703125 376.789062 C 306.195312 385.261719 293.613281 397.363281 274.351562 397.363281 C 255.085938 397.363281 242.503906 385.261719 235.996094 376.789062 L 189.910156 389.980469 C 180.386719 392.734375 173.703125 401.558594 173.703125 411.472656 L 173.703125 453.28125 L 332.320312 453.28125 C 331.09375 449.742188 330.265625 446.027344 330.265625 442.097656 " fill-opacity="1" fill-rule="nonzero"/><path fill="#4d4d4d" d="M 274.351562 330.265625 C 299.03125 330.265625 319.082031 310.214844 319.082031 285.53125 L 319.082031 263.167969 C 319.082031 238.484375 299.03125 218.433594 274.351562 218.433594 C 249.667969 218.433594 229.617188 238.484375 229.617188 263.167969 L 229.617188 285.53125 C 229.617188 310.214844 249.667969 330.265625 274.351562 330.265625 " fill-opacity="1" fill-rule="nonzero"/><path fill="#4d4d4d" d="M 251.984375 348.742188 L 251.984375 360.714844 C 254.734375 364.996094 262.46875 374.996094 274.351562 374.996094 C 286.230469 374.996094 293.964844 364.996094 296.714844 360.714844 L 296.714844 348.742188 C 289.683594 351.191406 282.210938 352.632812 274.351562 352.632812 C 266.488281 352.632812 259.015625 351.191406 251.984375 348.742188 " fill-opacity="1" fill-rule="nonzero"/><g clip-path="url(#1f607e583b)"><path fill="#4d4d4d" d="M 572.886719 676.941406 L 566.160156 609.84375 L 543.925781 609.84375 L 552.878906 699.308594 L 699.308594 699.308594 L 699.308594 676.941406 L 572.886719 676.941406 " fill-opacity="1" fill-rule="nonzero"/></g></svg>