<svg xmlns="http://www.w3.org/2000/svg" xmlns:xlink="http://www.w3.org/1999/xlink" width="1000" zoomAndPan="magnify" viewBox="0 0 750 749.999995" height="1000" preserveAspectRatio="xMidYMid meet" version="1.0"><defs><clipPath id="804c23b4c9"><path d="M 348 65.320312 L 392 65.320312 L 392 142 L 348 142 Z M 348 65.320312 " clip-rule="nonzero"/></clipPath><clipPath id="de21bdf3f3"><path d="M 52.414062 202 L 697.414062 202 L 697.414062 684.820312 L 52.414062 684.820312 Z M 52.414062 202 " clip-rule="nonzero"/></clipPath></defs><g clip-path="url(#804c23b4c9)"><path fill="#4d4d4d" d="M 372.21875 141.917969 L 367.546875 141.917969 C 360.59375 141.917969 354.71875 136.804688 353.742188 129.933594 L 348.207031 81.246094 C 347.027344 72.855469 353.539062 65.363281 362.011719 65.363281 L 377.753906 65.363281 C 386.226562 65.363281 392.738281 72.855469 391.558594 81.246094 L 386.027344 129.933594 C 385.046875 136.804688 379.171875 141.917969 372.21875 141.917969 " fill-opacity="1" fill-rule="nonzero"/></g><path fill="#4d4d4d" d="M 271.191406 178.601562 L 267.253906 181.097656 C 261.382812 184.8125 253.667969 183.632812 249.175781 178.339844 L 218.46875 140.179688 C 212.992188 133.730469 214.472656 123.898438 221.644531 119.363281 L 234.949219 110.953125 C 242.101562 106.417969 251.613281 109.273438 255.085938 117.007812 L 276.445312 161.078125 C 279.300781 167.410156 277.0625 174.882812 271.191406 178.601562 " fill-opacity="1" fill-rule="nonzero"/><path fill="#4d4d4d" d="M 468.574219 178.601562 L 472.511719 181.097656 C 478.386719 184.8125 486.097656 183.632812 490.59375 178.339844 L 521.296875 140.179688 C 526.773438 133.730469 525.292969 123.898438 518.121094 119.363281 L 504.816406 110.953125 C 497.664062 106.417969 488.15625 109.273438 484.679688 117.007812 L 463.320312 161.078125 C 460.464844 167.410156 462.703125 174.882812 468.574219 178.601562 " fill-opacity="1" fill-rule="nonzero"/><g clip-path="url(#de21bdf3f3)"><path fill="#4d4d4d" d="M 681.863281 329.695312 C 681.863281 339.464844 673.933594 347.398438 664.164062 347.398438 L 656.613281 347.398438 L 656.613281 304.285156 L 664.164062 304.285156 C 673.933594 304.285156 681.863281 312.214844 681.863281 321.964844 Z M 487.875 423.054688 C 483.679688 441.09375 475.507812 458.933594 463.300781 476.476562 C 447.199219 499.570312 438.347656 512.277344 438.347656 542.183594 L 438.347656 661.515625 C 438.347656 665.992188 434.691406 669.625 430.238281 669.625 L 307.171875 669.625 C 302.695312 669.625 299.058594 665.992188 299.058594 661.515625 L 299.058594 549.597656 C 299.058594 522.867188 291.589844 495.195312 283.695312 465.886719 C 276.304688 438.539062 268.753906 410.308594 267.535156 382.457031 L 394.394531 382.457031 C 367.644531 391.207031 352.121094 418.140625 346.789062 434.703125 C 345.488281 438.738281 347.707031 443.050781 351.761719 444.351562 C 355.796875 445.648438 360.113281 443.433594 361.414062 439.398438 C 366.40625 423.855469 382.089844 397.023438 409.121094 395.066406 C 415.953125 394.566406 422.105469 390.691406 425.5625 384.734375 C 429.058594 378.664062 429.359375 371.269531 426.320312 364.976562 C 417.8125 347.355469 410.21875 333.910156 403.6875 325.019531 C 398.191406 317.507812 394.675781 305.820312 402.925781 297.589844 C 406.78125 293.714844 412.257812 291.558594 417.730469 291.777344 C 422.285156 291.976562 426.300781 293.855469 429.039062 297.089844 C 441.644531 312.074219 474.929688 362.039062 475.386719 362.71875 C 488.054688 380.71875 492.609375 402.714844 487.875 423.054688 Z M 290.449219 272.578125 C 290.449219 264.148438 297.300781 257.292969 305.734375 257.292969 C 314.144531 257.292969 321.015625 264.148438 321.015625 272.578125 L 321.015625 327.578125 C 321.015625 335.988281 314.144531 342.839844 305.734375 342.839844 C 297.300781 342.839844 290.449219 335.988281 290.449219 327.578125 Z M 336.359375 254.277344 C 336.359375 245.867188 343.191406 239.015625 351.621094 239.015625 C 360.054688 239.015625 366.90625 245.867188 366.90625 254.277344 L 366.90625 324.800781 C 366.90625 333.230469 360.054688 340.085938 351.621094 340.085938 C 343.191406 340.085938 336.359375 333.230469 336.359375 324.800781 Z M 382.25 246.527344 C 382.25 238.09375 389.101562 231.242188 397.511719 231.242188 C 405.945312 231.242188 412.796875 238.09375 412.796875 246.527344 L 412.796875 276.691406 C 404.984375 277.613281 397.691406 281.109375 392.078125 286.742188 C 384.867188 293.933594 382.769531 306.382812 382.25 314.03125 Z M 428.140625 249.28125 C 428.140625 240.871094 434.992188 234.019531 443.421875 234.019531 C 451.835938 234.019531 458.6875 240.871094 458.6875 249.28125 L 458.6875 311.214844 C 451.792969 301.464844 445.179688 292.457031 440.765625 287.203125 C 437.371094 283.167969 433.035156 280.191406 428.140625 278.390625 Z M 93.382812 347.398438 L 85.8125 347.398438 C 76.0625 347.398438 68.128906 339.464844 68.128906 329.695312 L 68.128906 321.964844 C 68.128906 312.214844 76.0625 304.285156 85.8125 304.285156 L 93.382812 304.285156 Z M 664.164062 288.941406 L 656.53125 288.941406 C 655.773438 265.164062 637.234375 245.847656 613.796875 243.847656 C 605.925781 219.617188 583.152344 202.015625 556.320312 202.015625 C 522.976562 202.015625 495.867188 229.125 495.867188 262.46875 L 495.867188 269.359375 L 474.03125 269.359375 L 474.03125 249.28125 C 474.03125 232.402344 460.304688 218.675781 443.421875 218.675781 C 434.914062 218.675781 427.222656 222.152344 421.667969 227.765625 C 416.074219 220.574219 407.34375 215.898438 397.511719 215.898438 C 386.363281 215.898438 376.636719 221.914062 371.28125 230.84375 C 365.949219 226.367188 359.09375 223.671875 351.621094 223.671875 C 337.378906 223.671875 325.390625 233.460938 322.015625 246.6875 C 317.28125 243.710938 311.707031 241.949219 305.734375 241.949219 C 289.929688 241.949219 276.902344 253.976562 275.285156 269.359375 L 254.128906 269.359375 L 254.128906 262.46875 C 254.128906 229.125 227.019531 202.015625 193.675781 202.015625 C 166.84375 202.015625 144.066406 219.617188 136.195312 243.847656 C 112.742188 245.847656 94.222656 265.164062 93.464844 288.941406 L 85.8125 288.941406 C 67.613281 288.941406 52.789062 303.742188 52.789062 321.964844 L 52.789062 329.695312 C 52.789062 347.914062 67.613281 362.738281 85.8125 362.738281 L 93.464844 362.738281 C 94.222656 386.492188 112.742188 405.832031 136.195312 407.8125 C 144.066406 432.066406 166.84375 449.664062 193.675781 449.664062 C 224.042969 449.664062 249.195312 427.128906 253.429688 397.941406 C 256.167969 422.335938 262.539062 446.429688 268.871094 469.902344 C 276.503906 498.171875 283.714844 524.882812 283.714844 549.597656 L 283.714844 661.515625 C 283.714844 674.441406 294.246094 684.96875 307.171875 684.96875 L 430.238281 684.96875 C 443.164062 684.96875 453.691406 674.441406 453.691406 661.515625 L 453.691406 542.183594 C 453.691406 517.113281 460.644531 507.125 476.167969 484.847656 C 489.214844 466.109375 498.183594 446.488281 502.820312 426.53125 C 503.359375 424.191406 503.71875 421.835938 504.058594 419.457031 C 514.527344 437.5 534.003906 449.664062 556.320312 449.664062 C 583.152344 449.664062 605.925781 432.066406 613.796875 407.8125 C 637.234375 405.832031 655.773438 386.492188 656.53125 362.738281 L 664.164062 362.738281 C 682.382812 362.738281 697.207031 347.914062 697.207031 329.695312 L 697.207031 321.964844 C 697.207031 303.742188 682.382812 288.941406 664.164062 288.941406 " fill-opacity="1" fill-rule="nonzero"/></g></svg>