<svg xmlns="http://www.w3.org/2000/svg" xmlns:xlink="http://www.w3.org/1999/xlink" width="1000" zoomAndPan="magnify" viewBox="0 0 750 749.999995" height="1000" preserveAspectRatio="xMidYMid meet" version="1.0"><defs><clipPath id="b6206b4b4d"><path d="M 37 518 L 127 518 L 127 665.976562 L 37 665.976562 Z M 37 518 " clip-rule="nonzero"/></clipPath><clipPath id="7384301ea4"><path d="M 178 83.976562 L 569 83.976562 L 569 303 L 178 303 Z M 178 83.976562 " clip-rule="nonzero"/></clipPath></defs><g clip-path="url(#b6206b4b4d)"><path fill="#4d4d4d" d="M 70.925781 644.867188 C 70.925781 648.332031 68.144531 651.148438 64.730469 651.148438 C 61.304688 651.148438 58.523438 648.332031 58.523438 644.867188 L 58.523438 631.359375 C 58.523438 627.878906 61.304688 625.0625 64.730469 625.0625 C 68.144531 625.0625 70.925781 627.878906 70.925781 631.359375 Z M 119.050781 523.453125 L 92.0625 523.453125 C 92.0625 520.445312 89.648438 518.007812 86.679688 518.007812 L 37.398438 518.007812 L 37.398438 647.355469 C 37.398438 657.558594 45.546875 665.835938 55.617188 665.835938 L 86.679688 665.835938 C 89.648438 665.835938 92.0625 663.386719 92.0625 660.378906 L 119.050781 660.378906 C 123.1875 660.378906 126.554688 656.964844 126.554688 652.761719 L 126.554688 531.082031 C 126.554688 526.867188 123.1875 523.453125 119.050781 523.453125 " fill-opacity="1" fill-rule="nonzero"/></g><path fill="#4d4d4d" d="M 698.601562 478.195312 C 687.480469 468.117188 670.164062 468.777344 658.488281 478.195312 L 571.488281 547.777344 C 560.839844 556.34375 547.558594 560.953125 533.824219 560.953125 L 422.429688 560.953125 C 414.152344 560.953125 407.371094 554.175781 407.371094 545.898438 C 407.371094 537.609375 414.152344 530.828125 422.429688 530.828125 L 496.160156 530.828125 C 511.125 530.828125 525.066406 520.570312 527.515625 505.78125 C 530.613281 486.945312 516.117188 470.566406 497.757812 470.566406 L 347.109375 470.566406 C 321.683594 470.566406 297.105469 479.328125 277.339844 495.335938 L 233.558594 530.828125 L 181.394531 530.828125 C 173.105469 530.828125 166.324219 537.609375 166.324219 545.898438 L 166.324219 636.285156 C 166.324219 644.574219 173.105469 651.351562 181.394531 651.351562 L 517.347656 651.351562 C 530.992188 651.351562 544.273438 646.730469 555 638.164062 L 697.371094 524.242188 C 711.675781 512.839844 712.808594 490.992188 698.601562 478.195312 " fill-opacity="1" fill-rule="nonzero"/><g clip-path="url(#7384301ea4)"><path fill="#4d4d4d" d="M 244.742188 275.003906 L 282.6875 206.910156 C 285.515625 202.304688 290.492188 198.75 296.523438 199.105469 C 302.199219 199.472656 307.351562 202.632812 310.003906 207.964844 L 357.535156 302.640625 L 428.101562 147.324219 C 430.757812 141.648438 436.277344 137.726562 442.625 138.460938 C 448.832031 138.460938 454.355469 142.015625 456.464844 148.046875 L 507.203125 275.003906 L 539.792969 275.003906 C 556.816406 247.484375 568.035156 218.121094 568.035156 188.464844 C 568.035156 130.65625 521.042969 83.835938 463.21875 83.835938 C 424.726562 83.835938 391.199219 104.390625 372.96875 135.261719 C 354.703125 104.390625 321.1875 83.835938 282.6875 83.835938 C 224.875 83.835938 178.054688 130.65625 178.054688 188.464844 C 178.054688 218.121094 189.265625 247.484375 206.289062 275.003906 L 244.742188 275.003906 " fill-opacity="1" fill-rule="nonzero"/></g><path fill="#4d4d4d" d="M 496.742188 305.839844 C 490.535156 305.839844 484.863281 301.957031 482.359375 296.292969 L 441.21875 193.074219 L 372.246094 344.851562 C 369.769531 350.183594 364.4375 353.75 358.410156 354.066406 L 358.230469 354.066406 C 352.378906 354.066406 347.085938 350.550781 344.394531 345.207031 L 295.46875 247.34375 L 267.109375 298.035156 C 264.417969 303.011719 259.300781 305.839844 253.601562 305.839844 L 228.1875 305.839844 C 285.933594 377.996094 372.96875 431.0625 372.96875 431.0625 C 372.96875 431.0625 460.082031 377.996094 517.867188 305.839844 L 496.742188 305.839844 " fill-opacity="1" fill-rule="nonzero"/></svg>