<svg xmlns="http://www.w3.org/2000/svg" xmlns:xlink="http://www.w3.org/1999/xlink" width="1000" zoomAndPan="magnify" viewBox="0 0 750 749.999995" height="1000" preserveAspectRatio="xMidYMid meet" version="1.0"><defs><clipPath id="9d01e478d3"><path d="M 113 214 L 639 214 L 639 689.25 L 113 689.25 Z M 113 214 " clip-rule="nonzero"/></clipPath></defs><path fill="#4d4d4d" d="M 691.773438 281.488281 L 585.324219 203.1875 L 585.324219 109.785156 C 585.324219 95.140625 573.441406 83.296875 558.816406 83.296875 L 515.734375 83.296875 C 501.089844 83.296875 489.226562 95.164062 489.226562 109.785156 L 489.226562 132.476562 L 408.0625 72.78125 C 390.453125 59.796875 361.621094 59.796875 344.011719 72.78125 L 60.300781 281.488281 C 42.6875 294.453125 38.894531 319.488281 51.855469 337.121094 L 59.699219 347.761719 C 72.640625 365.390625 97.675781 369.207031 115.265625 356.246094 L 344.011719 187.902344 C 361.621094 174.9375 390.453125 174.9375 408.0625 187.902344 L 636.785156 356.246094 C 654.398438 369.207031 679.410156 365.371094 692.355469 347.761719 L 700.214844 337.121094 C 713.160156 319.488281 709.363281 294.453125 691.773438 281.488281 Z M 691.773438 281.488281 " fill-opacity="1" fill-rule="nonzero"/><g clip-path="url(#9d01e478d3)"><path fill="#4d4d4d" d="M 606.898438 370.886719 L 408 223.886719 C 390.410156 210.882812 361.664062 210.882812 344.074219 223.886719 L 145.175781 370.886719 C 127.585938 383.894531 113.191406 402.914062 113.191406 413.222656 L 113.191406 626.347656 C 113.191406 660.945312 142.851562 689.011719 179.460938 689.011719 L 300.929688 689.011719 L 300.929688 500.484375 C 300.929688 485.925781 312.855469 474.019531 327.417969 474.019531 L 424.613281 474.019531 C 439.175781 474.019531 451.101562 485.925781 451.101562 500.484375 L 451.101562 689.011719 L 572.589844 689.011719 C 609.179688 689.011719 638.820312 660.945312 638.820312 626.347656 L 638.820312 413.222656 C 638.839844 402.914062 624.488281 383.894531 606.898438 370.886719 Z M 606.898438 370.886719 " fill-opacity="1" fill-rule="nonzero"/></g></svg>