<svg class="h-20 w-20" xmlns="http://www.w3.org/2000/svg" xmlns:xlink="http://www.w3.org/1999/xlink" width="1920" zoomAndPan="magnify" viewBox="0 0 1440 809.999993" height="1080" preserveAspectRatio="xMidYMid meet" version="1.0"><defs><clipPath id="0248b8ebe2"><path class="medcertIcon" d="M 303 18.832031 L 1057 18.832031 L 1057 791 L 303 791 Z M 303 18.832031 " clip-rule="nonzero"/></clipPath></defs><g clip-path="url(#0248b8ebe2)"><path class="medcertIcon" d="M 1054.722656 559.566406 L 988.296875 417.425781 L 988.296875 186.40625 C 988.296875 184.59375 987.953125 182.851562 987.257812 181.175781 C 986.566406 179.5 985.578125 178.023438 984.296875 176.742188 L 863.753906 56.160156 C 862.472656 54.878906 860.992188 53.890625 859.320312 53.195312 C 857.644531 52.503906 855.902344 52.15625 854.085938 52.15625 L 779.234375 52.15625 L 760.695312 40.964844 C 759.140625 40.027344 757.46875 39.421875 755.679688 39.148438 C 753.886719 38.875 752.109375 38.957031 750.347656 39.386719 L 732.820312 43.703125 L 666.578125 19.660156 C 664.875 19.042969 663.117188 18.773438 661.304688 18.855469 C 659.496094 18.933594 657.769531 19.359375 656.125 20.125 L 587.496094 52.1875 L 469.238281 52.1875 C 468.339844 52.1875 467.453125 52.277344 466.570312 52.449219 C 465.691406 52.625 464.835938 52.886719 464.007812 53.230469 C 463.175781 53.570312 462.390625 53.992188 461.644531 54.492188 C 460.898438 54.992188 460.207031 55.558594 459.570312 56.191406 C 458.9375 56.828125 458.371094 57.519531 457.871094 58.265625 C 457.371094 59.011719 456.953125 59.796875 456.609375 60.628906 C 456.265625 61.457031 456.003906 62.3125 455.828125 63.191406 C 455.65625 64.074219 455.566406 64.960938 455.566406 65.859375 L 455.566406 111.902344 L 381.304688 130.183594 C 380.433594 130.398438 379.589844 130.695312 378.777344 131.074219 C 377.964844 131.453125 377.195312 131.910156 376.472656 132.441406 C 375.75 132.972656 375.085938 133.570312 374.480469 134.230469 C 373.875 134.894531 373.339844 135.609375 372.875 136.378906 C 372.410156 137.144531 372.023438 137.949219 371.71875 138.792969 C 371.414062 139.636719 371.191406 140.503906 371.058594 141.390625 C 370.921875 142.277344 370.875 143.171875 370.914062 144.066406 C 370.957031 144.964844 371.082031 145.847656 371.300781 146.71875 L 372.734375 152.523438 L 311.785156 181.03125 C 310.972656 181.410156 310.203125 181.863281 309.480469 182.394531 C 308.753906 182.925781 308.089844 183.523438 307.484375 184.1875 C 306.878906 184.847656 306.34375 185.5625 305.875 186.332031 C 305.410156 187.101562 305.027344 187.90625 304.71875 188.75 C 304.414062 189.59375 304.191406 190.460938 304.058594 191.347656 C 303.921875 192.234375 303.875 193.128906 303.914062 194.023438 C 303.953125 194.921875 304.082031 195.804688 304.296875 196.679688 C 304.511719 197.550781 304.808594 198.390625 305.191406 199.207031 L 455.574219 521.03125 L 455.574219 717.699219 C 455.574219 718.597656 455.664062 719.484375 455.839844 720.363281 C 456.011719 721.246094 456.273438 722.097656 456.617188 722.929688 C 456.957031 723.757812 457.378906 724.542969 457.878906 725.289062 C 458.375 726.035156 458.941406 726.726562 459.578125 727.359375 C 460.210938 727.996094 460.902344 728.5625 461.648438 729.058594 C 462.394531 729.558594 463.179688 729.980469 464.011719 730.324219 C 464.839844 730.664062 465.691406 730.925781 466.574219 731.101562 C 467.453125 731.273438 468.339844 731.363281 469.238281 731.363281 L 515.074219 731.363281 L 525.027344 771.878906 C 525.242188 772.75 525.539062 773.59375 525.917969 774.40625 C 526.296875 775.21875 526.753906 775.988281 527.285156 776.710938 C 527.816406 777.433594 528.414062 778.097656 529.074219 778.703125 C 529.738281 779.308594 530.453125 779.84375 531.21875 780.308594 C 531.988281 780.773438 532.792969 781.160156 533.636719 781.464844 C 534.480469 781.769531 535.347656 781.992188 536.234375 782.125 C 537.121094 782.261719 538.011719 782.308594 538.910156 782.265625 C 539.804688 782.226562 540.691406 782.097656 541.5625 781.882812 L 573.765625 773.96875 L 577.730469 782.457031 C 578.109375 783.269531 578.5625 784.042969 579.09375 784.765625 C 579.621094 785.492188 580.21875 786.160156 580.878906 786.765625 C 581.539062 787.375 582.253906 787.914062 583.023438 788.378906 C 583.789062 788.847656 584.59375 789.234375 585.4375 789.542969 C 586.28125 789.851562 587.148438 790.074219 588.035156 790.210938 C 588.921875 790.347656 589.816406 790.398438 590.714844 790.359375 C 591.609375 790.320312 592.496094 790.195312 593.367188 789.980469 C 594.242188 789.769531 595.085938 789.472656 595.898438 789.09375 L 688.671875 745.738281 L 746.929688 731.402344 L 974.632812 731.402344 C 975.53125 731.402344 976.417969 731.316406 977.300781 731.140625 C 978.179688 730.964844 979.03125 730.707031 979.863281 730.363281 C 980.691406 730.019531 981.476562 729.601562 982.222656 729.101562 C 982.96875 728.601562 983.660156 728.035156 984.292969 727.402344 C 984.929688 726.769531 985.496094 726.078125 985.992188 725.332031 C 986.492188 724.585938 986.914062 723.796875 987.257812 722.96875 C 987.601562 722.140625 987.859375 721.285156 988.035156 720.40625 C 988.210938 719.527344 988.296875 718.636719 988.296875 717.742188 L 988.296875 671.996094 L 1026.28125 662.648438 C 1027.15625 662.433594 1027.996094 662.136719 1028.808594 661.757812 C 1029.621094 661.378906 1030.390625 660.921875 1031.113281 660.390625 C 1031.835938 659.859375 1032.503906 659.261719 1033.109375 658.601562 C 1033.714844 657.9375 1034.25 657.222656 1034.714844 656.457031 C 1035.175781 655.6875 1035.5625 654.882812 1035.867188 654.039062 C 1036.175781 653.195312 1036.394531 652.328125 1036.53125 651.441406 C 1036.664062 650.554688 1036.710938 649.664062 1036.671875 648.765625 C 1036.628906 647.871094 1036.503906 646.988281 1036.289062 646.117188 L 1022.417969 589.703125 L 1048.132812 577.691406 C 1048.949219 577.3125 1049.71875 576.859375 1050.445312 576.328125 C 1051.167969 575.800781 1051.835938 575.203125 1052.441406 574.542969 C 1053.050781 573.882812 1053.585938 573.167969 1054.054688 572.398438 C 1054.519531 571.632812 1054.910156 570.828125 1055.21875 569.984375 C 1055.523438 569.140625 1055.75 568.273438 1055.886719 567.386719 C 1056.023438 566.5 1056.074219 565.605469 1056.035156 564.710938 C 1055.996094 563.8125 1055.871094 562.925781 1055.65625 562.054688 C 1055.445312 561.183594 1055.148438 560.339844 1054.769531 559.523438 Z M 867.75 98.851562 L 941.632812 172.734375 L 867.75 172.734375 Z M 662.570312 47.277344 L 676.09375 52.1875 L 652.035156 52.1875 Z M 455.574219 140.046875 L 455.574219 375.058594 L 401.0625 153.460938 Z M 379.355469 179.628906 L 438.421875 419.730469 L 335.734375 200.011719 Z M 543.230469 731.363281 L 632.515625 731.363281 L 548.324219 752.101562 Z M 482.917969 703.988281 L 482.917969 79.523438 L 840.417969 79.523438 L 840.417969 186.40625 C 840.417969 187.300781 840.503906 188.191406 840.679688 189.070312 C 840.855469 189.953125 841.113281 190.808594 841.457031 191.636719 C 841.800781 192.464844 842.222656 193.253906 842.71875 194 C 843.21875 194.746094 843.785156 195.433594 844.421875 196.070312 C 845.054688 196.703125 845.746094 197.269531 846.492188 197.769531 C 847.238281 198.265625 848.027344 198.6875 848.855469 199.03125 C 849.6875 199.375 850.539062 199.632812 851.421875 199.808594 C 852.300781 199.980469 853.191406 200.070312 854.085938 200.066406 L 960.960938 200.066406 L 960.960938 704.0625 Z M 988.296875 643.800781 L 988.296875 565.523438 L 1006.480469 639.355469 Z M 1015.765625 562.636719 L 1004.382812 516.410156 L 1024.167969 558.71875 Z M 523.824219 196.90625 C 523.824219 196.011719 523.914062 195.121094 524.085938 194.242188 C 524.261719 193.359375 524.523438 192.507812 524.867188 191.675781 C 525.210938 190.847656 525.628906 190.058594 526.128906 189.3125 C 526.628906 188.566406 527.195312 187.878906 527.828125 187.242188 C 528.464844 186.609375 529.15625 186.042969 529.902344 185.542969 C 530.648438 185.046875 531.4375 184.625 532.265625 184.28125 C 533.09375 183.9375 533.949219 183.679688 534.828125 183.503906 C 535.710938 183.332031 536.597656 183.242188 537.496094 183.246094 L 653.578125 183.246094 C 654.460938 183.265625 655.335938 183.371094 656.199219 183.5625 C 657.058594 183.753906 657.898438 184.027344 658.707031 184.378906 C 659.515625 184.734375 660.285156 185.160156 661.011719 185.664062 C 661.738281 186.164062 662.410156 186.730469 663.027344 187.363281 C 663.644531 187.996094 664.195312 188.683594 664.679688 189.421875 C 665.164062 190.160156 665.570312 190.941406 665.90625 191.757812 C 666.238281 192.578125 666.488281 193.417969 666.660156 194.285156 C 666.828125 195.152344 666.914062 196.027344 666.914062 196.910156 C 666.914062 197.796875 666.828125 198.671875 666.660156 199.539062 C 666.488281 200.40625 666.238281 201.246094 665.90625 202.066406 C 665.570312 202.882812 665.164062 203.664062 664.679688 204.402344 C 664.195312 205.140625 663.644531 205.828125 663.027344 206.460938 C 662.410156 207.089844 661.738281 207.660156 661.011719 208.160156 C 660.285156 208.664062 659.515625 209.089844 658.707031 209.445312 C 657.898438 209.796875 657.058594 210.070312 656.199219 210.261719 C 655.335938 210.449219 654.460938 210.558594 653.578125 210.578125 L 537.503906 210.578125 C 536.609375 210.578125 535.722656 210.492188 534.84375 210.316406 C 533.964844 210.144531 533.109375 209.882812 532.28125 209.542969 C 531.453125 209.199219 530.667969 208.78125 529.921875 208.285156 C 529.175781 207.785156 528.488281 207.222656 527.851562 206.589844 C 527.21875 205.957031 526.652344 205.269531 526.152344 204.523438 C 525.652344 203.78125 525.230469 202.996094 524.886719 202.167969 C 524.539062 201.339844 524.28125 200.488281 524.101562 199.609375 C 523.925781 198.730469 523.835938 197.84375 523.832031 196.949219 Z M 523.824219 253.277344 C 523.824219 252.378906 523.914062 251.492188 524.085938 250.609375 C 524.261719 249.730469 524.523438 248.875 524.867188 248.046875 C 525.210938 247.21875 525.628906 246.429688 526.128906 245.683594 C 526.628906 244.9375 527.195312 244.246094 527.828125 243.613281 C 528.464844 242.980469 529.15625 242.414062 529.902344 241.914062 C 530.648438 241.414062 531.4375 240.996094 532.265625 240.652344 C 533.09375 240.308594 533.949219 240.050781 534.828125 239.875 C 535.710938 239.699219 536.597656 239.613281 537.496094 239.613281 L 747.148438 239.613281 C 748.046875 239.613281 748.9375 239.703125 749.816406 239.878906 C 750.699219 240.050781 751.554688 240.3125 752.386719 240.65625 C 753.214844 241 754.003906 241.421875 754.75 241.921875 C 755.5 242.421875 756.191406 242.988281 756.824219 243.625 C 757.460938 244.257812 758.027344 244.949219 758.527344 245.699219 C 759.027344 246.445312 759.449219 247.234375 759.792969 248.0625 C 760.136719 248.894531 760.398438 249.75 760.570312 250.632812 C 760.746094 251.511719 760.835938 252.402344 760.835938 253.300781 C 760.835938 254.199219 760.746094 255.089844 760.570312 255.972656 C 760.398438 256.855469 760.136719 257.710938 759.792969 258.539062 C 759.449219 259.371094 759.027344 260.160156 758.527344 260.90625 C 758.027344 261.652344 757.460938 262.34375 756.824219 262.980469 C 756.191406 263.617188 755.5 264.183594 754.75 264.683594 C 754.003906 265.183594 753.214844 265.605469 752.386719 265.949219 C 751.554688 266.292969 750.699219 266.550781 749.816406 266.726562 C 748.9375 266.902344 748.046875 266.992188 747.148438 266.992188 L 537.503906 266.992188 C 536.605469 266.992188 535.71875 266.902344 534.835938 266.726562 C 533.957031 266.550781 533.101562 266.292969 532.273438 265.949219 C 531.445312 265.605469 530.65625 265.183594 529.910156 264.6875 C 529.164062 264.1875 528.472656 263.621094 527.835938 262.984375 C 527.203125 262.351562 526.636719 261.660156 526.136719 260.914062 C 525.636719 260.167969 525.21875 259.378906 524.875 258.550781 C 524.53125 257.722656 524.269531 256.867188 524.097656 255.984375 C 523.921875 255.105469 523.832031 254.214844 523.832031 253.320312 Z M 920.039062 328.992188 C 920.039062 329.890625 919.953125 330.78125 919.777344 331.660156 C 919.601562 332.539062 919.34375 333.394531 919 334.226562 C 918.65625 335.054688 918.234375 335.84375 917.734375 336.589844 C 917.238281 337.335938 916.667969 338.023438 916.035156 338.660156 C 915.398438 339.292969 914.710938 339.863281 913.964844 340.359375 C 913.214844 340.859375 912.429688 341.28125 911.597656 341.625 C 910.769531 341.96875 909.914062 342.226562 909.035156 342.402344 C 908.15625 342.578125 907.265625 342.664062 906.367188 342.664062 L 537.503906 342.664062 C 536.605469 342.664062 535.714844 342.578125 534.835938 342.402344 C 533.953125 342.226562 533.097656 341.964844 532.265625 341.621094 C 531.4375 341.277344 530.648438 340.855469 529.898438 340.359375 C 529.152344 339.859375 528.460938 339.289062 527.824219 338.65625 C 527.191406 338.019531 526.621094 337.328125 526.125 336.582031 C 525.625 335.832031 525.203125 335.042969 524.859375 334.214844 C 524.515625 333.382812 524.253906 332.527344 524.078125 331.648438 C 523.902344 330.765625 523.816406 329.875 523.816406 328.976562 C 523.816406 328.078125 523.902344 327.1875 524.078125 326.304688 C 524.253906 325.425781 524.515625 324.570312 524.859375 323.738281 C 525.203125 322.90625 525.625 322.117188 526.125 321.371094 C 526.621094 320.625 527.191406 319.933594 527.824219 319.296875 C 528.460938 318.660156 529.152344 318.09375 529.898438 317.59375 C 530.648438 317.097656 531.4375 316.675781 532.265625 316.332031 C 533.097656 315.984375 533.953125 315.726562 534.835938 315.550781 C 535.714844 315.375 536.605469 315.289062 537.503906 315.289062 L 906.375 315.289062 C 907.277344 315.289062 908.167969 315.375 909.050781 315.554688 C 909.9375 315.730469 910.792969 315.992188 911.625 316.335938 C 912.457031 316.683594 913.246094 317.105469 913.996094 317.609375 C 914.742188 318.109375 915.433594 318.679688 916.070312 319.320312 C 916.703125 319.957031 917.269531 320.652344 917.769531 321.402344 C 918.265625 322.152344 918.6875 322.945312 919.027344 323.78125 C 919.371094 324.613281 919.625 325.472656 919.796875 326.355469 C 919.96875 327.242188 920.050781 328.132812 920.046875 329.035156 Z M 920.039062 391.667969 C 920.042969 392.566406 919.960938 393.460938 919.789062 394.34375 C 919.621094 395.230469 919.363281 396.085938 919.023438 396.921875 C 918.683594 397.753906 918.261719 398.546875 917.765625 399.296875 C 917.269531 400.046875 916.703125 400.742188 916.066406 401.382812 C 915.433594 402.019531 914.742188 402.589844 913.992188 403.09375 C 913.246094 403.59375 912.457031 404.019531 911.625 404.367188 C 910.792969 404.710938 909.933594 404.972656 909.050781 405.148438 C 908.167969 405.324219 907.277344 405.414062 906.375 405.414062 L 537.503906 405.414062 C 536.605469 405.414062 535.714844 405.324219 534.835938 405.152344 C 533.953125 404.976562 533.097656 404.714844 532.265625 404.371094 C 531.4375 404.027344 530.648438 403.605469 529.898438 403.105469 C 529.152344 402.605469 528.460938 402.039062 527.824219 401.40625 C 527.191406 400.769531 526.621094 400.078125 526.125 399.332031 C 525.625 398.582031 525.203125 397.792969 524.859375 396.964844 C 524.515625 396.132812 524.253906 395.277344 524.078125 394.394531 C 523.902344 393.515625 523.816406 392.625 523.816406 391.726562 C 523.816406 390.828125 523.902344 389.9375 524.078125 389.054688 C 524.253906 388.171875 524.515625 387.316406 524.859375 386.488281 C 525.203125 385.65625 525.625 384.867188 526.125 384.121094 C 526.621094 383.375 527.191406 382.683594 527.824219 382.046875 C 528.460938 381.410156 529.152344 380.84375 529.898438 380.34375 C 530.648438 379.84375 531.4375 379.421875 532.265625 379.078125 C 533.097656 378.734375 533.953125 378.476562 534.835938 378.300781 C 535.714844 378.125 536.605469 378.039062 537.503906 378.039062 L 906.375 378.039062 C 907.273438 378.039062 908.164062 378.125 909.042969 378.300781 C 909.921875 378.476562 910.777344 378.734375 911.609375 379.078125 C 912.4375 379.421875 913.226562 379.84375 913.972656 380.339844 C 914.71875 380.839844 915.410156 381.40625 916.042969 382.042969 C 916.679688 382.675781 917.246094 383.367188 917.742188 384.113281 C 918.242188 384.859375 918.664062 385.648438 919.007812 386.476562 C 919.351562 387.304688 919.609375 388.160156 919.785156 389.042969 C 919.960938 389.921875 920.046875 390.8125 920.046875 391.707031 Z M 920.039062 454.34375 C 920.039062 455.238281 919.953125 456.128906 919.777344 457.007812 C 919.601562 457.890625 919.339844 458.742188 919 459.574219 C 918.65625 460.402344 918.234375 461.1875 917.734375 461.933594 C 917.234375 462.679688 916.667969 463.371094 916.035156 464.007812 C 915.398438 464.640625 914.707031 465.207031 913.960938 465.707031 C 913.214844 466.203125 912.429688 466.625 911.597656 466.96875 C 910.769531 467.308594 909.914062 467.570312 909.035156 467.742188 C 908.152344 467.917969 907.265625 468.003906 906.367188 468.003906 L 537.503906 468.003906 C 536.605469 468.007812 535.714844 467.917969 534.832031 467.746094 C 533.949219 467.570312 533.09375 467.3125 532.261719 466.96875 C 531.429688 466.625 530.640625 466.203125 529.890625 465.703125 C 529.140625 465.207031 528.449219 464.636719 527.8125 464.003906 C 527.175781 463.367188 526.609375 462.675781 526.109375 461.925781 C 525.609375 461.179688 525.1875 460.390625 524.839844 459.558594 C 524.496094 458.730469 524.238281 457.871094 524.0625 456.988281 C 523.886719 456.109375 523.796875 455.214844 523.796875 454.316406 C 523.796875 453.417969 523.886719 452.527344 524.0625 451.644531 C 524.238281 450.761719 524.496094 449.90625 524.839844 449.074219 C 525.1875 448.242188 525.609375 447.453125 526.109375 446.707031 C 526.609375 445.957031 527.175781 445.265625 527.8125 444.632812 C 528.449219 443.996094 529.140625 443.429688 529.890625 442.929688 C 530.640625 442.429688 531.429688 442.007812 532.261719 441.664062 C 533.09375 441.320312 533.949219 441.0625 534.832031 440.890625 C 535.714844 440.714844 536.605469 440.628906 537.503906 440.628906 L 906.375 440.628906 C 907.277344 440.628906 908.167969 440.71875 909.050781 440.894531 C 909.933594 441.070312 910.789062 441.328125 911.621094 441.675781 C 912.453125 442.019531 913.242188 442.445312 913.988281 442.945312 C 914.738281 443.445312 915.429688 444.015625 916.0625 444.652344 C 916.699219 445.292969 917.265625 445.984375 917.761719 446.734375 C 918.261719 447.484375 918.679688 448.277344 919.023438 449.109375 C 919.367188 449.941406 919.621094 450.800781 919.792969 451.683594 C 919.96875 452.566406 920.050781 453.457031 920.046875 454.359375 Z M 920.039062 517.015625 C 920.039062 517.914062 919.953125 518.804688 919.777344 519.683594 C 919.601562 520.5625 919.339844 521.417969 919 522.246094 C 918.65625 523.078125 918.234375 523.863281 917.734375 524.609375 C 917.234375 525.355469 916.667969 526.046875 916.035156 526.679688 C 915.398438 527.316406 914.707031 527.882812 913.960938 528.378906 C 913.214844 528.878906 912.429688 529.300781 911.597656 529.640625 C 910.769531 529.984375 909.914062 530.242188 909.035156 530.417969 C 908.152344 530.59375 907.265625 530.679688 906.367188 530.679688 L 537.503906 530.679688 C 536.605469 530.679688 535.714844 530.59375 534.835938 530.417969 C 533.953125 530.242188 533.097656 529.980469 532.265625 529.636719 C 531.4375 529.292969 530.648438 528.871094 529.898438 528.371094 C 529.152344 527.875 528.460938 527.304688 527.824219 526.671875 C 527.191406 526.035156 526.621094 525.34375 526.125 524.597656 C 525.625 523.847656 525.203125 523.058594 524.859375 522.230469 C 524.515625 521.398438 524.253906 520.542969 524.078125 519.660156 C 523.902344 518.78125 523.816406 517.890625 523.816406 516.992188 C 523.816406 516.09375 523.902344 515.203125 524.078125 514.320312 C 524.253906 513.441406 524.515625 512.582031 524.859375 511.753906 C 525.203125 510.921875 525.625 510.132812 526.125 509.386719 C 526.621094 508.640625 527.191406 507.949219 527.824219 507.3125 C 528.460938 506.675781 529.152344 506.109375 529.898438 505.609375 C 530.648438 505.109375 531.4375 504.6875 532.265625 504.34375 C 533.097656 504 533.953125 503.742188 534.835938 503.566406 C 535.714844 503.390625 536.605469 503.304688 537.503906 503.304688 L 906.375 503.304688 C 907.277344 503.304688 908.167969 503.390625 909.054688 503.566406 C 909.9375 503.746094 910.796875 504.007812 911.628906 504.351562 C 912.460938 504.699219 913.25 505.121094 913.996094 505.625 C 914.746094 506.128906 915.4375 506.699219 916.074219 507.335938 C 916.707031 507.976562 917.273438 508.671875 917.773438 509.421875 C 918.269531 510.171875 918.691406 510.964844 919.03125 511.800781 C 919.371094 512.636719 919.628906 513.496094 919.800781 514.378906 C 919.96875 515.265625 920.054688 516.15625 920.046875 517.058594 Z M 920.039062 579.683594 C 920.039062 580.582031 919.953125 581.46875 919.777344 582.351562 C 919.601562 583.230469 919.34375 584.085938 919 584.914062 C 918.65625 585.742188 918.234375 586.53125 917.734375 587.277344 C 917.238281 588.023438 916.667969 588.714844 916.035156 589.351562 C 915.398438 589.984375 914.710938 590.550781 913.964844 591.050781 C 913.214844 591.550781 912.429688 591.96875 911.597656 592.3125 C 910.769531 592.65625 909.914062 592.917969 909.035156 593.089844 C 908.15625 593.265625 907.265625 593.355469 906.367188 593.355469 L 788.070312 593.355469 C 787.171875 593.355469 786.28125 593.265625 785.398438 593.089844 C 784.519531 592.914062 783.660156 592.65625 782.832031 592.3125 C 782 591.96875 781.210938 591.546875 780.464844 591.046875 C 779.71875 590.546875 779.027344 589.980469 778.390625 589.34375 C 777.753906 588.710938 777.1875 588.019531 776.6875 587.269531 C 776.1875 586.523438 775.769531 585.734375 775.421875 584.902344 C 775.078125 584.074219 774.820312 583.21875 774.644531 582.335938 C 774.46875 581.453125 774.382812 580.566406 774.382812 579.667969 C 774.382812 578.765625 774.46875 577.878906 774.644531 576.996094 C 774.820312 576.113281 775.078125 575.257812 775.421875 574.429688 C 775.769531 573.597656 776.1875 572.808594 776.6875 572.0625 C 777.1875 571.3125 777.753906 570.621094 778.390625 569.988281 C 779.027344 569.351562 779.71875 568.785156 780.464844 568.285156 C 781.210938 567.785156 782 567.363281 782.832031 567.019531 C 783.660156 566.675781 784.519531 566.417969 785.398438 566.242188 C 786.28125 566.066406 787.171875 565.976562 788.070312 565.976562 L 906.375 565.976562 C 907.277344 565.976562 908.167969 566.066406 909.054688 566.242188 C 909.9375 566.417969 910.792969 566.679688 911.625 567.023438 C 912.457031 567.371094 913.25 567.792969 913.996094 568.296875 C 914.746094 568.796875 915.4375 569.367188 916.070312 570.007812 C 916.707031 570.644531 917.273438 571.339844 917.773438 572.089844 C 918.269531 572.839844 918.6875 573.632812 919.03125 574.46875 C 919.371094 575.300781 919.628906 576.160156 919.796875 577.046875 C 919.96875 577.929688 920.054688 578.824219 920.046875 579.722656 Z M 920.039062 579.683594 " fill-opacity="1" fill-rule="nonzero"/></g></svg>