<svg xmlns="http://www.w3.org/2000/svg" xmlns:xlink="http://www.w3.org/1999/xlink" width="1000" zoomAndPan="magnify" viewBox="0 0 750 749.999995" height="1000" preserveAspectRatio="xMidYMid meet" version="1.0"><defs><clipPath id="c12ce93f69"><path d="M 39 39 L 710.863281 39 L 710.863281 710.863281 L 39 710.863281 Z M 39 39 " clip-rule="nonzero"/></clipPath></defs><g clip-path="url(#c12ce93f69)"><path fill="#4d4d4d" d="M 479.3125 282.269531 C 472.914062 282.269531 467.722656 277.078125 467.722656 270.679688 C 467.722656 270.679688 467.722656 73.914062 467.722656 73.914062 C 467.722656 54.707031 452.15625 39.140625 432.949219 39.140625 L 317.042969 39.140625 C 297.835938 39.140625 282.269531 54.707031 282.269531 73.914062 L 282.269531 270.679688 C 282.269531 277.078125 277.078125 282.269531 270.679688 282.269531 C 270.679688 282.269531 73.914062 282.269531 73.914062 282.269531 C 54.707031 282.269531 39.140625 297.835938 39.140625 317.042969 L 39.140625 432.949219 C 39.140625 452.15625 54.707031 467.722656 73.914062 467.722656 L 270.679688 467.722656 C 277.078125 467.722656 282.269531 472.914062 282.269531 479.3125 C 282.269531 479.3125 282.269531 676.082031 282.269531 676.082031 C 282.269531 695.285156 297.835938 710.851562 317.042969 710.851562 L 432.949219 710.851562 C 452.15625 710.851562 467.722656 695.285156 467.722656 676.082031 L 467.722656 479.3125 C 467.722656 472.914062 472.914062 467.722656 479.3125 467.722656 C 479.3125 467.722656 676.082031 467.722656 676.082031 467.722656 C 695.285156 467.722656 710.851562 452.15625 710.851562 432.949219 L 710.851562 317.042969 C 710.851562 297.835938 695.285156 282.269531 676.082031 282.269531 Z M 479.3125 282.269531 " fill-opacity="1" fill-rule="evenodd"/></g></svg>