<svg class="w-10 h-10 "  xmlns="http://www.w3.org/2000/svg" xmlns:xlink="http://www.w3.org/1999/xlink"  zoomAndPan="magnify" viewBox="0 0 1440 809.999993" preserveAspectRatio="xMidYMid meet" version="1.0"><defs><clipPath id="16b61d835f"><path class="proceedIcon" d="M 318.101562 14.570312 L 1095.101562 14.570312 L 1095.101562 791.570312 L 318.101562 791.570312 Z M 318.101562 14.570312 " clip-rule="nonzero"/></clipPath></defs><path class="proceedIcon" d="M 949.570312 382.882812 L 722.933594 201.578125 C 721.988281 200.808594 720.992188 200.109375 719.945312 199.484375 C 718.902344 198.855469 717.816406 198.304688 716.695312 197.832031 C 715.570312 197.355469 714.417969 196.964844 713.242188 196.652344 C 712.0625 196.339844 710.867188 196.113281 709.65625 195.96875 C 708.445312 195.824219 707.230469 195.769531 706.011719 195.796875 C 704.792969 195.824219 703.582031 195.9375 702.378906 196.140625 C 701.175781 196.339844 699.992188 196.621094 698.832031 196.988281 C 697.667969 197.355469 696.535156 197.800781 695.4375 198.328125 C 694.335938 198.851562 693.28125 199.453125 692.265625 200.128906 C 691.25 200.804688 690.289062 201.550781 689.378906 202.359375 C 688.46875 203.171875 687.621094 204.042969 686.832031 204.976562 C 686.046875 205.90625 685.328125 206.886719 684.679688 207.921875 C 684.03125 208.953125 683.460938 210.027344 682.960938 211.140625 C 682.464844 212.253906 682.050781 213.398438 681.714844 214.570312 C 681.378906 215.742188 681.128906 216.929688 680.960938 218.140625 C 680.792969 219.347656 680.710938 220.558594 680.714844 221.777344 L 680.714844 309.324219 L 548.101562 309.324219 C 546.515625 309.242188 544.925781 309.199219 543.335938 309.195312 C 541.746094 309.191406 540.15625 309.230469 538.566406 309.308594 C 536.980469 309.386719 535.394531 309.503906 533.8125 309.664062 C 532.230469 309.820312 530.652344 310.019531 529.078125 310.257812 C 527.507812 310.496094 525.941406 310.773438 524.382812 311.089844 C 522.828125 311.410156 521.277344 311.765625 519.738281 312.164062 C 518.199219 312.558594 516.667969 312.992188 515.152344 313.46875 C 513.632812 313.941406 512.128906 314.453125 510.636719 315.003906 C 509.144531 315.554688 507.667969 316.140625 506.203125 316.765625 C 504.742188 317.390625 503.296875 318.054688 501.867188 318.753906 C 500.441406 319.449219 499.03125 320.183594 497.640625 320.957031 C 496.246094 321.726562 494.875 322.53125 493.527344 323.371094 C 492.175781 324.210938 490.847656 325.082031 489.542969 325.988281 C 488.234375 326.898438 486.953125 327.835938 485.695312 328.808594 C 484.4375 329.78125 483.203125 330.785156 481.996094 331.820312 C 480.789062 332.851562 479.609375 333.917969 478.453125 335.011719 C 477.300781 336.105469 476.175781 337.230469 475.078125 338.382812 C 473.980469 339.53125 472.914062 340.710938 471.878906 341.917969 C 470.84375 343.125 469.835938 344.355469 468.863281 345.609375 C 467.886719 346.867188 466.945312 348.148438 466.035156 349.453125 C 465.128906 350.757812 464.253906 352.085938 463.410156 353.433594 C 462.566406 354.78125 461.761719 356.152344 460.988281 357.542969 C 460.214844 358.929688 459.480469 360.339844 458.777344 361.765625 C 458.078125 363.195312 457.414062 364.640625 456.785156 366.101562 C 456.15625 367.5625 455.566406 369.035156 455.015625 370.527344 C 454.460938 372.019531 453.945312 373.523438 453.46875 375.039062 C 452.992188 376.558594 452.554688 378.085938 452.15625 379.625 C 451.757812 381.164062 451.398438 382.710938 451.078125 384.269531 C 450.757812 385.828125 450.476562 387.390625 450.234375 388.964844 C 449.992188 390.535156 449.792969 392.113281 449.632812 393.695312 C 449.472656 395.277344 449.351562 396.863281 449.269531 398.449219 C 449.1875 400.039062 449.148438 401.625 449.148438 403.21875 C 449.148438 404.808594 449.1875 406.394531 449.269531 407.984375 C 449.351562 409.574219 449.472656 411.15625 449.632812 412.738281 C 449.792969 414.320312 449.992188 415.898438 450.234375 417.46875 C 450.476562 419.042969 450.757812 420.605469 451.078125 422.164062 C 451.398438 423.722656 451.757812 425.269531 452.15625 426.808594 C 452.554688 428.347656 452.992188 429.878906 453.46875 431.394531 C 453.945312 432.910156 454.460938 434.414062 455.015625 435.90625 C 455.566406 437.398438 456.15625 438.875 456.785156 440.335938 C 457.414062 441.796875 458.078125 443.238281 458.777344 444.667969 C 459.480469 446.09375 460.214844 447.503906 460.988281 448.890625 C 461.761719 450.28125 462.566406 451.652344 463.410156 453 C 464.253906 454.351562 465.128906 455.675781 466.035156 456.980469 C 466.945312 458.285156 467.886719 459.566406 468.863281 460.824219 C 469.835938 462.078125 470.84375 463.3125 471.878906 464.515625 C 472.914062 465.722656 473.980469 466.902344 475.078125 468.050781 C 476.175781 469.203125 477.300781 470.328125 478.453125 471.421875 C 479.609375 472.515625 480.789062 473.582031 481.996094 474.617188 C 483.203125 475.648438 484.4375 476.652344 485.695312 477.625 C 486.953125 478.597656 488.234375 479.539062 489.542969 480.445312 C 490.847656 481.351562 492.175781 482.222656 493.527344 483.0625 C 494.875 483.902344 496.246094 484.707031 497.640625 485.480469 C 499.03125 486.25 500.441406 486.984375 501.867188 487.679688 C 503.296875 488.378906 504.742188 489.042969 506.203125 489.667969 C 507.667969 490.292969 509.144531 490.878906 510.636719 491.429688 C 512.128906 491.980469 513.632812 492.492188 515.152344 492.964844 C 516.667969 493.441406 518.199219 493.875 519.738281 494.273438 C 521.277344 494.667969 522.828125 495.023438 524.382812 495.34375 C 525.941406 495.660156 527.507812 495.9375 529.078125 496.175781 C 530.652344 496.414062 532.230469 496.613281 533.8125 496.769531 C 535.394531 496.929688 536.980469 497.046875 538.566406 497.125 C 540.15625 497.203125 541.746094 497.242188 543.335938 497.238281 C 544.925781 497.234375 546.515625 497.191406 548.101562 497.109375 L 680.714844 497.109375 L 680.714844 584.394531 C 680.71875 585.609375 680.808594 586.820312 680.980469 588.019531 C 681.15625 589.222656 681.410156 590.40625 681.75 591.574219 C 682.089844 592.738281 682.511719 593.875 683.011719 594.980469 C 683.511719 596.089844 684.085938 597.15625 684.734375 598.179688 C 685.386719 599.207031 686.105469 600.183594 686.890625 601.105469 C 687.679688 602.03125 688.527344 602.898438 689.433594 603.703125 C 690.34375 604.507812 691.304688 605.246094 692.316406 605.917969 C 693.328125 606.589844 694.382812 607.183594 695.480469 607.707031 C 698.984375 609.46875 702.695312 610.332031 706.617188 610.296875 C 709.582031 610.308594 712.464844 609.828125 715.265625 608.847656 C 718.066406 607.871094 720.621094 606.453125 722.933594 604.597656 L 949.570312 423.289062 C 950.324219 422.6875 951.042969 422.039062 951.722656 421.355469 C 952.40625 420.671875 953.046875 419.949219 953.648438 419.191406 C 954.25 418.433594 954.804688 417.648438 955.320312 416.828125 C 955.832031 416.007812 956.296875 415.164062 956.714844 414.292969 C 957.132812 413.421875 957.5 412.527344 957.820312 411.617188 C 958.136719 410.703125 958.402344 409.773438 958.617188 408.832031 C 958.832031 407.890625 958.992188 406.9375 959.101562 405.976562 C 959.210938 405.015625 959.261719 404.054688 959.261719 403.085938 C 959.261719 402.121094 959.210938 401.15625 959.101562 400.195312 C 958.992188 399.238281 958.832031 398.285156 958.617188 397.34375 C 958.402344 396.398438 958.136719 395.472656 957.820312 394.558594 C 957.5 393.648438 957.132812 392.753906 956.714844 391.882812 C 956.296875 391.011719 955.832031 390.167969 955.320312 389.347656 C 954.804688 388.527344 954.25 387.738281 953.648438 386.984375 C 953.046875 386.226562 952.40625 385.503906 951.722656 384.820312 C 951.042969 384.132812 950.324219 383.488281 949.570312 382.882812 Z M 505.882812 403.085938 C 505.882812 401.707031 505.953125 400.332031 506.085938 398.957031 C 506.222656 397.585938 506.425781 396.222656 506.695312 394.871094 C 506.964844 393.515625 507.300781 392.179688 507.703125 390.859375 C 508.105469 389.539062 508.570312 388.242188 509.101562 386.96875 C 509.632812 385.695312 510.222656 384.453125 510.875 383.234375 C 511.527344 382.019531 512.238281 380.839844 513.007812 379.695312 C 513.777344 378.550781 514.601562 377.445312 515.480469 376.378906 C 516.359375 375.316406 517.285156 374.296875 518.265625 373.324219 C 519.242188 372.351562 520.265625 371.429688 521.335938 370.558594 C 522.40625 369.6875 523.515625 368.871094 524.667969 368.109375 C 525.816406 367.347656 527 366.644531 528.21875 365.996094 C 529.441406 365.351562 530.6875 364.769531 531.964844 364.246094 C 533.242188 363.726562 534.542969 363.265625 535.863281 362.875 C 537.1875 362.480469 538.523438 362.152344 539.878906 361.890625 C 541.234375 361.628906 542.597656 361.433594 543.972656 361.304688 C 545.347656 361.179688 546.722656 361.117188 548.101562 361.128906 L 567.527344 361.128906 L 567.527344 445.304688 L 548.101562 445.304688 C 546.71875 445.304688 545.339844 445.238281 543.964844 445.101562 C 542.589844 444.96875 541.222656 444.765625 539.867188 444.496094 C 538.507812 444.226562 537.171875 443.890625 535.847656 443.488281 C 534.523438 443.085938 533.222656 442.621094 531.945312 442.09375 C 530.667969 441.5625 529.421875 440.972656 528.199219 440.320312 C 526.980469 439.667969 525.796875 438.960938 524.648438 438.191406 C 523.496094 437.421875 522.386719 436.601562 521.320312 435.722656 C 520.25 434.847656 519.226562 433.917969 518.25 432.941406 C 517.269531 431.964844 516.34375 430.941406 515.464844 429.871094 C 514.589844 428.800781 513.765625 427.691406 513 426.542969 C 512.230469 425.394531 511.519531 424.207031 510.867188 422.988281 C 510.21875 421.769531 509.625 420.523438 509.097656 419.242188 C 508.566406 417.964844 508.101562 416.667969 507.703125 415.34375 C 507.300781 414.019531 506.964844 412.679688 506.695312 411.324219 C 506.425781 409.96875 506.222656 408.601562 506.085938 407.226562 C 505.953125 405.847656 505.882812 404.46875 505.882812 403.085938 Z M 732.519531 530.519531 L 732.519531 471.207031 C 732.519531 470.359375 732.476562 469.511719 732.394531 468.667969 C 732.3125 467.824219 732.1875 466.988281 732.019531 466.15625 C 731.855469 465.324219 731.648438 464.5 731.402344 463.6875 C 731.15625 462.878906 730.871094 462.078125 730.546875 461.296875 C 730.222656 460.511719 729.859375 459.746094 729.460938 458.996094 C 729.058594 458.25 728.625 457.523438 728.152344 456.816406 C 727.683594 456.113281 727.175781 455.433594 726.640625 454.777344 C 726.101562 454.121094 725.53125 453.492188 724.933594 452.894531 C 724.332031 452.292969 723.703125 451.722656 723.050781 451.1875 C 722.394531 450.648438 721.710938 450.144531 721.007812 449.671875 C 720.300781 449.199219 719.574219 448.765625 718.828125 448.363281 C 718.078125 447.964844 717.3125 447.601562 716.53125 447.277344 C 715.746094 446.953125 714.949219 446.667969 714.136719 446.421875 C 713.324219 446.175781 712.503906 445.96875 711.671875 445.804688 C 710.839844 445.636719 710 445.515625 709.15625 445.429688 C 708.3125 445.347656 707.464844 445.304688 706.617188 445.304688 L 619.332031 445.304688 L 619.332031 361.128906 L 706.617188 361.128906 C 707.464844 361.128906 708.3125 361.085938 709.15625 361.003906 C 710 360.917969 710.839844 360.796875 711.671875 360.628906 C 712.503906 360.464844 713.324219 360.257812 714.136719 360.011719 C 714.949219 359.765625 715.746094 359.480469 716.53125 359.15625 C 717.3125 358.832031 718.078125 358.46875 718.828125 358.070312 C 719.574219 357.667969 720.300781 357.234375 721.007812 356.761719 C 721.710938 356.292969 722.394531 355.785156 723.050781 355.25 C 723.703125 354.710938 724.332031 354.140625 724.933594 353.542969 C 725.53125 352.941406 726.101562 352.3125 726.640625 351.65625 C 727.175781 351.003906 727.683594 350.320312 728.152344 349.617188 C 728.625 348.910156 729.058594 348.183594 729.460938 347.4375 C 729.859375 346.6875 730.222656 345.921875 730.546875 345.136719 C 730.871094 344.355469 731.15625 343.558594 731.402344 342.746094 C 731.648438 341.933594 731.855469 341.113281 732.019531 340.28125 C 732.1875 339.449219 732.3125 338.609375 732.394531 337.765625 C 732.476562 336.921875 732.519531 336.074219 732.519531 335.226562 L 732.519531 275.652344 L 891.8125 403.085938 Z M 732.519531 530.519531 " fill-opacity="1" fill-rule="nonzero"/><g clip-path="url(#16b61d835f)"><path class="proceedIcon" d="M 706.617188 14.570312 C 700.257812 14.570312 693.90625 14.726562 687.554688 15.039062 C 681.203125 15.351562 674.863281 15.816406 668.535156 16.441406 C 662.207031 17.0625 655.898438 17.84375 649.609375 18.773438 C 643.320312 19.707031 637.058594 20.792969 630.820312 22.035156 C 624.585938 23.277344 618.382812 24.667969 612.214844 26.214844 C 606.046875 27.757812 599.921875 29.453125 593.835938 31.300781 C 587.753906 33.144531 581.714844 35.140625 575.730469 37.28125 C 569.742188 39.421875 563.8125 41.710938 557.9375 44.144531 C 552.0625 46.578125 546.253906 49.152344 540.503906 51.871094 C 534.757812 54.589844 529.078125 57.449219 523.472656 60.445312 C 517.863281 63.441406 512.332031 66.574219 506.878906 69.84375 C 501.425781 73.113281 496.054688 76.515625 490.769531 80.046875 C 485.480469 83.578125 480.285156 87.238281 475.179688 91.027344 C 470.070312 94.816406 465.058594 98.726562 460.144531 102.757812 C 455.230469 106.792969 450.417969 110.945312 445.703125 115.214844 C 440.992188 119.484375 436.390625 123.867188 431.894531 128.363281 C 427.398438 132.859375 423.015625 137.464844 418.746094 142.175781 C 414.476562 146.886719 410.324219 151.699219 406.289062 156.613281 C 402.253906 161.53125 398.34375 166.539062 394.558594 171.648438 C 390.769531 176.753906 387.109375 181.953125 383.578125 187.238281 C 380.042969 192.527344 376.644531 197.894531 373.375 203.347656 C 370.105469 208.804688 366.972656 214.332031 363.976562 219.941406 C 360.976562 225.550781 358.121094 231.226562 355.402344 236.976562 C 352.683594 242.722656 350.105469 248.535156 347.675781 254.410156 C 345.242188 260.28125 342.953125 266.214844 340.8125 272.199219 C 338.667969 278.1875 336.675781 284.222656 334.828125 290.308594 C 332.984375 296.390625 331.289062 302.515625 329.742188 308.683594 C 328.199219 314.851562 326.804688 321.054688 325.566406 327.292969 C 324.324219 333.527344 323.238281 339.789062 322.304688 346.082031 C 321.371094 352.371094 320.59375 358.679688 319.972656 365.007812 C 319.347656 371.332031 318.878906 377.671875 318.566406 384.023438 C 318.257812 390.375 318.101562 396.730469 318.101562 403.085938 C 318.101562 409.445312 318.257812 415.800781 318.566406 422.152344 C 318.878906 428.5 319.347656 434.839844 319.972656 441.167969 C 320.59375 447.496094 321.371094 453.804688 322.304688 460.09375 C 323.238281 466.382812 324.324219 472.648438 325.566406 478.882812 C 326.804688 485.121094 328.199219 491.320312 329.742188 497.488281 C 331.289062 503.65625 332.984375 509.785156 334.828125 515.867188 C 336.675781 521.953125 338.667969 527.988281 340.8125 533.976562 C 342.953125 539.960938 345.242188 545.890625 347.675781 551.765625 C 350.105469 557.640625 352.683594 563.453125 355.402344 569.199219 C 358.121094 574.949219 360.976562 580.625 363.976562 586.234375 C 366.972656 591.839844 370.105469 597.371094 373.375 602.824219 C 376.644531 608.277344 380.042969 613.648438 383.578125 618.9375 C 387.109375 624.222656 390.769531 629.417969 394.558594 634.527344 C 398.34375 639.632812 402.253906 644.644531 406.289062 649.558594 C 410.324219 654.476562 414.476562 659.289062 418.746094 664 C 423.015625 668.710938 427.398438 673.316406 431.894531 677.8125 C 436.390625 682.308594 440.992188 686.691406 445.703125 690.960938 C 450.417969 695.230469 455.230469 699.382812 460.144531 703.414062 C 465.058594 707.449219 470.070312 711.359375 475.179688 715.148438 C 480.285156 718.933594 485.480469 722.59375 490.769531 726.128906 C 496.054688 729.660156 501.425781 733.0625 506.878906 736.328125 C 512.332031 739.597656 517.863281 742.730469 523.472656 745.730469 C 529.078125 748.726562 534.757812 751.585938 540.503906 754.304688 C 546.253906 757.023438 552.0625 759.597656 557.9375 762.03125 C 563.8125 764.464844 569.742188 766.75 575.730469 768.894531 C 581.714844 771.035156 587.753906 773.03125 593.835938 774.875 C 599.921875 776.722656 606.046875 778.417969 612.214844 779.960938 C 618.382812 781.507812 624.585938 782.898438 630.820312 784.140625 C 637.058594 785.378906 643.320312 786.46875 649.609375 787.398438 C 655.898438 788.332031 662.207031 789.109375 668.535156 789.734375 C 674.863281 790.359375 681.203125 790.824219 687.554688 791.136719 C 693.90625 791.449219 700.257812 791.605469 706.617188 791.605469 C 712.976562 791.605469 719.332031 791.449219 725.679688 791.136719 C 732.03125 790.824219 738.371094 790.359375 744.699219 789.734375 C 751.027344 789.109375 757.335938 788.332031 763.625 787.398438 C 769.914062 786.46875 776.175781 785.378906 782.414062 784.140625 C 788.648438 782.898438 794.851562 781.507812 801.019531 779.960938 C 807.1875 778.417969 813.3125 776.722656 819.398438 774.875 C 825.484375 773.03125 831.519531 771.035156 837.503906 768.894531 C 843.492188 766.75 849.421875 764.464844 855.296875 762.03125 C 861.171875 759.597656 866.980469 757.023438 872.730469 754.304688 C 878.476562 751.585938 884.15625 748.726562 889.761719 745.730469 C 895.371094 742.730469 900.902344 739.597656 906.355469 736.328125 C 911.808594 733.0625 917.179688 729.660156 922.464844 726.128906 C 927.753906 722.59375 932.949219 718.933594 938.058594 715.148438 C 943.164062 711.359375 948.175781 707.449219 953.089844 703.414062 C 958.003906 699.382812 962.820312 695.230469 967.53125 690.960938 C 972.242188 686.691406 976.84375 682.308594 981.339844 677.8125 C 985.835938 673.316406 990.21875 668.710938 994.488281 664 C 998.761719 659.289062 1002.910156 654.476562 1006.945312 649.558594 C 1010.980469 644.644531 1014.890625 639.632812 1018.675781 634.527344 C 1022.464844 629.421875 1026.125 624.222656 1029.65625 618.9375 C 1033.191406 613.648438 1036.589844 608.277344 1039.859375 602.824219 C 1043.128906 597.371094 1046.261719 591.839844 1049.257812 586.234375 C 1052.257812 580.625 1055.113281 574.949219 1057.832031 569.199219 C 1060.550781 563.453125 1063.128906 557.640625 1065.5625 551.765625 C 1067.996094 545.890625 1070.28125 539.960938 1072.425781 533.976562 C 1074.566406 527.988281 1076.558594 521.953125 1078.40625 515.867188 C 1080.25 509.785156 1081.945312 503.65625 1083.492188 497.488281 C 1085.035156 491.320312 1086.429688 485.121094 1087.667969 478.882812 C 1088.910156 472.648438 1089.996094 466.382812 1090.929688 460.09375 C 1091.863281 453.804688 1092.640625 447.496094 1093.265625 441.167969 C 1093.886719 434.839844 1094.355469 428.5 1094.667969 422.152344 C 1094.980469 415.800781 1095.136719 409.445312 1095.136719 403.085938 C 1095.136719 396.730469 1094.980469 390.375 1094.667969 384.023438 C 1094.355469 377.671875 1093.886719 371.332031 1093.265625 365.007812 C 1092.640625 358.679688 1091.863281 352.371094 1090.929688 346.078125 C 1089.996094 339.789062 1088.910156 333.527344 1087.667969 327.292969 C 1086.429688 321.054688 1085.035156 314.851562 1083.492188 308.683594 C 1081.945312 302.515625 1080.25 296.390625 1078.40625 290.308594 C 1076.558594 284.222656 1074.566406 278.1875 1072.425781 272.199219 C 1070.28125 266.214844 1067.996094 260.28125 1065.5625 254.410156 C 1063.128906 248.535156 1060.550781 242.722656 1057.832031 236.976562 C 1055.113281 231.226562 1052.257812 225.550781 1049.257812 219.941406 C 1046.261719 214.332031 1043.128906 208.804688 1039.859375 203.347656 C 1036.589844 197.894531 1033.191406 192.527344 1029.65625 187.238281 C 1026.125 181.953125 1022.464844 176.753906 1018.675781 171.648438 C 1014.890625 166.539062 1010.980469 161.53125 1006.945312 156.613281 C 1002.910156 151.699219 998.761719 146.886719 994.488281 142.175781 C 990.21875 137.464844 985.835938 132.859375 981.339844 128.363281 C 976.84375 123.867188 972.242188 119.484375 967.53125 115.214844 C 962.820312 110.945312 958.003906 106.792969 953.089844 102.757812 C 948.175781 98.726562 943.164062 94.816406 938.058594 91.027344 C 932.949219 87.238281 927.753906 83.578125 922.464844 80.046875 C 917.179688 76.515625 911.808594 73.113281 906.355469 69.84375 C 900.902344 66.574219 895.371094 63.441406 889.761719 60.445312 C 884.15625 57.449219 878.476562 54.589844 872.730469 51.871094 C 866.980469 49.152344 861.171875 46.578125 855.296875 44.144531 C 849.421875 41.710938 843.492188 39.421875 837.503906 37.28125 C 831.519531 35.140625 825.484375 33.144531 819.398438 31.300781 C 813.3125 29.453125 807.1875 27.757812 801.019531 26.214844 C 794.851562 24.667969 788.648438 23.277344 782.414062 22.035156 C 776.175781 20.792969 769.914062 19.707031 763.625 18.773438 C 757.335938 17.84375 751.027344 17.0625 744.699219 16.441406 C 738.371094 15.816406 732.03125 15.351562 725.679688 15.039062 C 719.332031 14.726562 712.976562 14.570312 706.617188 14.570312 Z M 706.617188 739.800781 C 701.105469 739.800781 695.601562 739.667969 690.09375 739.398438 C 684.589844 739.125 679.097656 738.722656 673.613281 738.179688 C 668.128906 737.640625 662.660156 736.96875 657.210938 736.160156 C 651.761719 735.351562 646.332031 734.40625 640.925781 733.332031 C 635.523438 732.257812 630.148438 731.050781 624.800781 729.710938 C 619.457031 728.371094 614.148438 726.902344 608.875 725.304688 C 603.601562 723.703125 598.371094 721.976562 593.179688 720.121094 C 587.992188 718.261719 582.851562 716.28125 577.761719 714.171875 C 572.671875 712.0625 567.632812 709.832031 562.652344 707.472656 C 557.671875 705.117188 552.75 702.640625 547.890625 700.042969 C 543.03125 697.445312 538.238281 694.730469 533.511719 691.898438 C 528.785156 689.066406 524.128906 686.117188 519.546875 683.054688 C 514.964844 679.996094 510.460938 676.820312 506.035156 673.539062 C 501.609375 670.257812 497.265625 666.867188 493.007812 663.371094 C 488.746094 659.875 484.578125 656.277344 480.492188 652.578125 C 476.410156 648.875 472.421875 645.078125 468.523438 641.179688 C 464.628906 637.285156 460.828125 633.292969 457.128906 629.210938 C 453.425781 625.128906 449.828125 620.957031 446.332031 616.699219 C 442.835938 612.4375 439.449219 608.09375 436.164062 603.667969 C 432.882812 599.242188 429.710938 594.738281 426.648438 590.15625 C 423.585938 585.574219 420.640625 580.921875 417.808594 576.195312 C 414.972656 571.46875 412.257812 566.675781 409.660156 561.8125 C 407.0625 556.953125 404.585938 552.035156 402.230469 547.050781 C 399.875 542.070312 397.640625 537.035156 395.535156 531.941406 C 393.425781 526.851562 391.441406 521.710938 389.585938 516.523438 C 387.730469 511.335938 386 506.105469 384.402344 500.832031 C 382.800781 495.558594 381.332031 490.246094 379.992188 484.902344 C 378.652344 479.558594 377.445312 474.183594 376.371094 468.777344 C 375.296875 463.371094 374.355469 457.945312 373.546875 452.492188 C 372.738281 447.042969 372.0625 441.574219 371.523438 436.089844 C 370.984375 430.605469 370.578125 425.113281 370.308594 419.609375 C 370.039062 414.105469 369.902344 408.597656 369.902344 403.085938 C 369.902344 397.578125 370.039062 392.070312 370.308594 386.566406 C 370.578125 381.0625 370.984375 375.566406 371.523438 370.082031 C 372.0625 364.597656 372.738281 359.132812 373.546875 353.679688 C 374.355469 348.230469 375.296875 342.800781 376.371094 337.398438 C 377.445312 331.992188 378.652344 326.617188 379.992188 321.273438 C 381.332031 315.925781 382.800781 310.617188 384.402344 305.34375 C 386 300.070312 387.730469 294.839844 389.585938 289.652344 C 391.441406 284.464844 393.425781 279.324219 395.535156 274.230469 C 397.640625 269.140625 399.875 264.105469 402.230469 259.125 C 404.585938 254.140625 407.0625 249.222656 409.660156 244.359375 C 412.257812 239.5 414.972656 234.707031 417.808594 229.980469 C 420.640625 225.253906 423.585938 220.601562 426.648438 216.019531 C 429.710938 211.4375 432.882812 206.933594 436.164062 202.507812 C 439.449219 198.082031 442.835938 193.738281 446.332031 189.476562 C 449.828125 185.21875 453.425781 181.046875 457.128906 176.964844 C 460.828125 172.878906 464.628906 168.890625 468.523438 164.992188 C 472.421875 161.097656 476.410156 157.296875 480.492188 153.597656 C 484.578125 149.898438 488.746094 146.300781 493.007812 142.804688 C 497.265625 139.308594 501.609375 135.917969 506.035156 132.636719 C 510.460938 129.351562 514.964844 126.179688 519.546875 123.117188 C 524.128906 120.058594 528.785156 117.109375 533.511719 114.277344 C 538.238281 111.445312 543.03125 108.730469 547.890625 106.132812 C 552.75 103.535156 557.671875 101.054688 562.652344 98.699219 C 567.632812 96.34375 572.671875 94.113281 577.761719 92.003906 C 582.851562 89.894531 587.992188 87.910156 593.179688 86.054688 C 598.371094 84.199219 603.601562 82.472656 608.875 80.871094 C 614.148438 79.269531 619.457031 77.800781 624.800781 76.464844 C 630.148438 75.125 635.523438 73.917969 640.925781 72.84375 C 646.332031 71.765625 651.761719 70.824219 657.210938 70.015625 C 662.660156 69.207031 668.128906 68.535156 673.613281 67.992188 C 679.097656 67.453125 684.589844 67.046875 690.09375 66.777344 C 695.601562 66.507812 701.105469 66.371094 706.617188 66.371094 C 712.128906 66.371094 717.636719 66.507812 723.140625 66.777344 C 728.644531 67.046875 734.136719 67.453125 739.621094 67.992188 C 745.105469 68.535156 750.574219 69.207031 756.023438 70.015625 C 761.476562 70.824219 766.902344 71.765625 772.308594 72.84375 C 777.710938 73.917969 783.085938 75.125 788.433594 76.464844 C 793.777344 77.800781 799.085938 79.269531 804.359375 80.871094 C 809.632812 82.472656 814.863281 84.199219 820.054688 86.054688 C 825.242188 87.910156 830.382812 89.894531 835.472656 92.003906 C 840.5625 94.113281 845.601562 96.34375 850.582031 98.699219 C 855.5625 101.054688 860.484375 103.535156 865.34375 106.132812 C 870.203125 108.730469 874.996094 111.445312 879.722656 114.277344 C 884.449219 117.109375 889.105469 120.058594 893.6875 123.117188 C 898.269531 126.179688 902.773438 129.351562 907.199219 132.636719 C 911.625 135.917969 915.96875 139.308594 920.226562 142.804688 C 924.488281 146.300781 928.660156 149.898438 932.742188 153.597656 C 936.824219 157.296875 940.816406 161.097656 944.710938 164.992188 C 948.609375 168.890625 952.40625 172.878906 956.105469 176.964844 C 959.808594 181.046875 963.40625 185.21875 966.902344 189.476562 C 970.398438 193.738281 973.785156 198.082031 977.070312 202.507812 C 980.351562 206.933594 983.523438 211.4375 986.585938 216.019531 C 989.648438 220.601562 992.59375 225.253906 995.429688 229.980469 C 998.261719 234.707031 1000.976562 239.5 1003.574219 244.359375 C 1006.171875 249.222656 1008.648438 254.140625 1011.003906 259.125 C 1013.359375 264.105469 1015.59375 269.140625 1017.703125 274.230469 C 1019.8125 279.324219 1021.792969 284.464844 1023.648438 289.652344 C 1025.507812 294.839844 1027.234375 300.070312 1028.832031 305.34375 C 1030.433594 310.617188 1031.902344 315.925781 1033.242188 321.273438 C 1034.582031 326.617188 1035.789062 331.992188 1036.863281 337.398438 C 1037.9375 342.800781 1038.878906 348.230469 1039.6875 353.679688 C 1040.496094 359.132812 1041.171875 364.597656 1041.710938 370.082031 C 1042.25 375.566406 1042.65625 381.0625 1042.925781 386.566406 C 1043.199219 392.070312 1043.332031 397.578125 1043.332031 403.085938 C 1043.332031 408.597656 1043.199219 414.105469 1042.925781 419.609375 C 1042.65625 425.113281 1042.25 430.605469 1041.710938 436.089844 C 1041.171875 441.574219 1040.496094 447.042969 1039.6875 452.492188 C 1038.878906 457.945312 1037.9375 463.371094 1036.863281 468.777344 C 1035.789062 474.183594 1034.582031 479.558594 1033.242188 484.902344 C 1031.902344 490.246094 1030.433594 495.558594 1028.832031 500.832031 C 1027.234375 506.105469 1025.507812 511.335938 1023.648438 516.523438 C 1021.792969 521.710938 1019.8125 526.851562 1017.703125 531.941406 C 1015.59375 537.035156 1013.359375 542.070312 1011.003906 547.050781 C 1008.648438 552.035156 1006.171875 556.953125 1003.574219 561.8125 C 1000.976562 566.675781 998.261719 571.46875 995.429688 576.195312 C 992.59375 580.921875 989.648438 585.574219 986.585938 590.15625 C 983.523438 594.738281 980.351562 599.242188 977.070312 603.667969 C 973.789062 608.09375 970.398438 612.4375 966.902344 616.699219 C 963.40625 620.957031 959.808594 625.128906 956.105469 629.210938 C 952.40625 633.292969 948.609375 637.285156 944.710938 641.179688 C 940.816406 645.078125 936.824219 648.875 932.742188 652.578125 C 928.660156 656.277344 924.488281 659.875 920.226562 663.371094 C 915.96875 666.867188 911.625 670.257812 907.199219 673.539062 C 902.773438 676.824219 898.269531 679.996094 893.6875 683.054688 C 889.105469 686.117188 884.449219 689.066406 879.722656 691.898438 C 874.996094 694.730469 870.203125 697.445312 865.34375 700.042969 C 860.484375 702.640625 855.5625 705.117188 850.582031 707.472656 C 845.601562 709.832031 840.5625 712.0625 835.472656 714.171875 C 830.382812 716.28125 825.242188 718.261719 820.054688 720.121094 C 814.863281 721.976562 809.632812 723.703125 804.359375 725.304688 C 799.085938 726.902344 793.777344 728.371094 788.433594 729.710938 C 783.085938 731.050781 777.710938 732.257812 772.308594 733.332031 C 766.902344 734.40625 761.476562 735.351562 756.023438 736.160156 C 750.574219 736.96875 745.105469 737.640625 739.621094 738.179688 C 734.136719 738.722656 728.644531 739.125 723.140625 739.398438 C 717.636719 739.667969 712.128906 739.800781 706.617188 739.800781 Z M 706.617188 739.800781 " fill-opacity="1" fill-rule="nonzero"/></g></svg>